<?xml version="1.0" standalone="no"?>
<svg xmlns:xlink="http://www.w3.org/1999/xlink" id="wave" style="transform:rotate(180deg); transition: 0.3s" viewBox="0 0 1440 290" version="1.1" xmlns="http://www.w3.org/2000/svg"><defs><linearGradient id="sw-gradient-0" x1="0" x2="0" y1="1" y2="0"><stop stop-color="rgba(255, 249, 234, 1)" offset="0%"/><stop stop-color="rgba(255, 249, 234, 1)" offset="100%"/></linearGradient></defs><path style="transform:translate(0, 0px); opacity:1" fill="url(#sw-gradient-0)" d="M0,58L80,77.3C160,97,320,135,480,130.5C640,126,800,77,960,62.8C1120,48,1280,68,1440,106.3C1600,145,1760,203,1920,198.2C2080,193,2240,126,2400,82.2C2560,39,2720,19,2880,14.5C3040,10,3200,19,3360,29C3520,39,3680,48,3840,58C4000,68,4160,77,4320,77.3C4480,77,4640,68,4800,77.3C4960,87,5120,116,5280,125.7C5440,135,5600,126,5760,135.3C5920,145,6080,174,6240,154.7C6400,135,6560,68,6720,53.2C6880,39,7040,77,7200,101.5C7360,126,7520,135,7680,149.8C7840,164,8000,184,8160,159.5C8320,135,8480,68,8640,33.8C8800,0,8960,0,9120,43.5C9280,87,9440,174,9600,178.8C9760,184,9920,106,10080,67.7C10240,29,10400,29,10560,24.2C10720,19,10880,10,11040,9.7C11200,10,11360,19,11440,24.2L11520,29L11520,290L11440,290C11360,290,11200,290,11040,290C10880,290,10720,290,10560,290C10400,290,10240,290,10080,290C9920,290,9760,290,9600,290C9440,290,9280,290,9120,290C8960,290,8800,290,8640,290C8480,290,8320,290,8160,290C8000,290,7840,290,7680,290C7520,290,7360,290,7200,290C7040,290,6880,290,6720,290C6560,290,6400,290,6240,290C6080,290,5920,290,5760,290C5600,290,5440,290,5280,290C5120,290,4960,290,4800,290C4640,290,4480,290,4320,290C4160,290,4000,290,3840,290C3680,290,3520,290,3360,290C3200,290,3040,290,2880,290C2720,290,2560,290,2400,290C2240,290,2080,290,1920,290C1760,290,1600,290,1440,290C1280,290,1120,290,960,290C800,290,640,290,480,290C320,290,160,290,80,290L0,290Z"/></svg>